<?xml version="1.0" standalone="no"?>
<!DOCTYPE svg PUBLIC "-//W3C//DTD SVG 20010904//EN"
 "http://www.w3.org/TR/2001/REC-SVG-20010904/DTD/svg10.dtd">
<svg version="1.0" xmlns="http://www.w3.org/2000/svg"
 width="498.000000pt" height="498.000000pt" viewBox="0 0 498.000000 498.000000"
 preserveAspectRatio="xMidYMid meet">

<g transform="translate(0.000000,498.000000) scale(0.100000,-0.100000)"
fill="#000000" stroke="none">
<path d="M749 4976 c-2 -2 -51 -9 -109 -16 -58 -6 -123 -20 -145 -30 -22 -10
-65 -21 -95 -24 -30 -3 -60 -11 -65 -18 -15 -19 -47 -35 -94 -48 -22 -6 -51
-21 -63 -33 -13 -12 -39 -33 -58 -47 -19 -13 -54 -40 -77 -59 l-43 -35 0 -428
c0 -235 3 -428 7 -428 4 0 19 12 34 26 33 32 53 25 38 -13 -21 -57 -40 -253
-40 -418 1 -93 3 -181 6 -195 17 -87 26 -124 45 -176 16 -46 23 -97 30 -224
10 -196 27 -279 74 -363 19 -34 43 -79 52 -99 9 -21 20 -38 25 -38 22 0 6 -31
-23 -45 -51 -24 -62 -36 -93 -100 l-30 -60 -63 2 -62 1 0 -54 c0 -58 2 -61 40
-39 34 20 50 18 50 -4 0 -10 7 -25 16 -32 13 -11 17 -10 25 4 12 20 49 23 49
3 0 -13 48 -106 60 -116 3 -3 17 -26 30 -53 14 -26 40 -68 59 -95 34 -46 35
-48 32 -142 -1 -52 -6 -98 -9 -102 -8 -7 -238 26 -292 42 -51 15 -60 13 -60
-14 0 -20 6 -25 38 -31 20 -3 43 -9 49 -13 15 -9 28 -324 27 -647 0 -244 3
-231 -84 -384 -23 -40 -30 -63 -28 -93 l3 -40 38 66 c22 36 43 66 48 66 5 0 9
-16 9 -35 0 -50 16 -43 29 13 23 96 30 256 31 645 0 311 3 397 13 397 37 0
185 -23 204 -32 12 -6 27 -24 34 -39 19 -47 81 -102 157 -138 l71 -34 6 -61
c6 -53 -1 -806 -8 -861 -1 -11 -5 -22 -9 -25 -4 -3 -9 -15 -11 -25 -2 -11 -7
-29 -11 -40 -5 -11 -12 -32 -17 -46 -6 -14 -9 -52 -7 -85 l3 -59 108 -3 c63
-2 107 1 107 7 0 5 -6 12 -12 14 -10 4 -10 7 0 14 9 7 1 15 -28 29 -44 21 -51
43 -21 75 19 20 19 20 25 2 4 -11 12 -20 19 -21 49 -6 76 -16 70 -25 -4 -6 0
-8 11 -4 10 4 19 1 22 -6 2 -7 27 -21 54 -32 28 -11 53 -27 56 -37 5 -16 21
-18 165 -18 l159 0 10 25 c5 13 11 50 14 82 3 32 10 85 15 118 6 33 19 128 30
212 11 84 27 181 35 215 8 35 19 83 23 108 11 60 22 66 373 200 25 9 86 29
135 44 50 15 110 34 135 41 55 17 259 53 318 57 57 3 80 -20 83 -87 2 -48 -6
-85 -20 -85 -3 0 -7 11 -7 25 -1 14 -9 36 -18 50 -14 22 -24 25 -70 25 -61 0
-238 -32 -307 -55 -25 -9 -50 -15 -55 -14 -5 1 -16 0 -24 -3 -25 -9 -123 -36
-160 -44 -44 -10 -40 -9 -75 -23 -16 -7 -77 -30 -135 -53 -58 -22 -114 -50
-126 -62 -21 -21 -46 -142 -60 -296 -3 -36 -11 -81 -17 -100 -6 -19 -12 -62
-13 -95 -1 -33 -5 -111 -9 -172 l-8 -113 551 0 551 0 0 85 c0 46 -4 87 -9 90
-14 9 -13 242 1 250 6 4 20 -3 31 -15 17 -18 22 -42 29 -128 4 -59 8 -146 8
-194 l1 -88 113 0 c108 0 113 1 141 27 41 38 67 104 67 169 0 52 2 55 22 49
46 -13 133 -48 167 -67 50 -27 116 -56 136 -60 21 -4 114 -91 114 -107 0 -6
11 -11 25 -11 14 0 25 3 25 6 0 16 -38 84 -68 121 -34 43 -89 162 -112 246
-17 64 -8 175 21 232 24 48 43 59 135 79 33 7 158 39 279 71 298 77 287 75
305 65 18 -10 114 -31 150 -32 35 -2 127 19 190 43 37 14 56 17 64 9 6 -6 10
-51 9 -108 -1 -79 -6 -110 -27 -167 -15 -38 -33 -76 -40 -85 -7 -8 -16 -22
-19 -30 -8 -18 -67 -101 -99 -138 -13 -15 -60 -53 -105 -84 -45 -32 -119 -94
-165 -140 -82 -81 -83 -82 -54 -86 24 -3 39 6 85 51 66 63 159 137 174 137 10
0 4 -141 -9 -173 -5 -15 3 -17 78 -17 l85 0 6 71 c7 77 15 95 88 179 60 70
113 168 133 246 10 38 16 105 16 171 l0 108 58 34 c167 98 269 183 317 265 27
47 27 47 22 199 -4 126 -9 165 -30 227 -34 102 -71 179 -124 258 -25 37 -53
84 -64 104 -10 20 -40 54 -66 75 -27 21 -74 65 -105 98 -54 55 -58 63 -58 107
0 26 -4 58 -10 73 -14 37 -107 132 -157 162 -41 24 -46 24 -217 21 l-175 -3
-3 105 c-3 104 -3 105 27 140 17 19 33 39 38 45 4 5 21 28 37 50 16 22 33 45
37 50 5 6 18 29 31 51 20 37 22 56 22 173 0 96 -4 140 -15 160 -22 43 -70 61
-164 61 -78 0 -82 1 -91 26 -6 14 -12 46 -14 72 -2 26 -7 55 -11 65 -4 10 -5
21 -1 24 3 3 1 12 -5 19 -6 8 -9 20 -6 28 3 8 3 17 -1 21 -4 4 -7 14 -8 23 0
9 -6 30 -12 45 -7 16 -10 32 -7 37 3 5 1 11 -5 15 -6 4 -8 11 -4 16 3 5 0 16
-6 24 -7 8 -9 15 -5 15 4 0 3 6 -3 13 -6 7 -13 26 -16 42 -2 17 -5 32 -6 35
-1 3 -3 10 -5 15 -1 6 -3 13 -5 18 -1 4 -3 10 -4 15 -1 4 -21 63 -43 132 -36
112 -58 200 -78 323 -5 30 -3 38 12 43 120 41 264 124 356 204 50 45 121 147
157 228 13 28 28 52 34 52 6 0 155 -9 331 -20 176 -11 371 -20 433 -20 l112 0
0 50 0 50 -80 0 c-47 0 -80 4 -80 10 0 6 -5 10 -11 10 -5 0 -7 -5 -3 -11 5 -8
1 -8 -13 0 -11 5 -99 12 -197 14 -120 3 -181 8 -191 17 -12 10 -18 10 -29 1
-10 -8 -16 -9 -21 -1 -3 5 -11 10 -16 10 -6 0 -7 -4 -4 -10 3 -6 -1 -7 -10 -4
-9 4 -65 8 -123 9 -59 2 -128 5 -154 7 l-47 5 -20 -46 c-11 -25 -20 -40 -21
-33 0 6 -4 12 -9 12 -4 0 -6 -11 -3 -25 2 -14 0 -25 -6 -25 -5 0 -13 -11 -16
-25 -4 -14 -11 -25 -16 -25 -6 0 -10 -7 -10 -15 0 -8 -4 -15 -10 -15 -5 0 -10
-6 -10 -13 0 -18 -79 -99 -90 -92 -6 3 -10 -1 -10 -9 0 -9 -7 -16 -15 -16 -8
0 -19 -9 -25 -20 -6 -11 -15 -18 -21 -15 -5 4 -9 2 -9 -2 0 -5 -30 -24 -67
-43 -38 -19 -70 -37 -73 -40 -10 -10 -56 -29 -90 -38 -27 -7 -39 -6 -49 5 -7
8 -16 12 -19 8 -4 -3 0 -10 8 -15 10 -6 11 -10 3 -10 -30 0 -64 87 -64 163 0
52 25 87 63 87 10 0 18 4 18 8 0 5 10 14 23 19 12 6 42 26 67 44 25 19 48 34
51 34 9 0 69 63 69 72 0 5 15 24 33 43 17 18 25 30 17 25 -13 -7 -13 -6 1 11
8 10 20 31 27 47 l12 27 -117 0 -116 0 -36 -37 c-56 -58 -134 -123 -147 -123
-6 0 -15 8 -18 18 -4 9 -16 33 -26 52 -11 19 -20 47 -20 63 l0 27 -1253 0
c-690 0 -1256 -2 -1258 -4z m1531 -203 c8 -4 22 -8 30 -9 38 -7 128 -33 155
-44 17 -7 37 -14 45 -16 50 -9 77 -17 128 -40 31 -14 66 -27 76 -30 11 -2 24
-8 30 -14 5 -5 16 -10 23 -10 7 0 42 -13 76 -30 35 -16 71 -30 80 -30 10 0 17
-4 17 -10 0 -5 7 -10 15 -10 8 0 23 -4 33 -10 9 -5 48 -24 86 -41 38 -18 89
-48 113 -66 24 -18 47 -33 51 -33 13 -1 106 -89 100 -95 -3 -4 -14 3 -24 13
-31 33 -116 78 -231 122 -59 23 -117 46 -128 50 -123 48 -249 94 -335 121 -58
18 -175 68 -261 111 -86 43 -162 78 -168 78 -6 0 -11 4 -11 9 0 9 68 -2 100
-16z m-269 -398 c78 -8 158 -19 178 -24 20 -5 63 -12 96 -16 76 -8 145 -38
145 -61 0 -16 2 -15 20 3 18 20 21 21 72 7 29 -8 64 -17 78 -20 32 -7 236 -72
275 -89 17 -7 62 -25 100 -41 39 -15 138 -62 220 -104 135 -67 152 -79 168
-112 9 -21 35 -50 58 -65 48 -32 68 -68 103 -188 15 -49 35 -119 46 -155 18
-60 45 -190 68 -319 13 -73 9 -81 -44 -81 -55 0 -62 14 -68 133 -2 45 -5 84
-6 87 -7 15 -15 -88 -11 -128 9 -69 3 -89 -27 -101 -36 -14 -174 -24 -189 -14
-6 5 -13 30 -14 56 -2 26 -6 47 -10 47 -10 0 -22 -38 -15 -49 3 -5 8 -40 11
-77 3 -38 8 -78 10 -89 2 -11 7 -65 10 -120 4 -55 9 -107 11 -115 3 -8 7 -64
10 -125 3 -60 9 -174 15 -252 5 -78 9 -186 9 -239 0 -88 -3 -102 -25 -134 -43
-63 -61 -247 -31 -327 24 -63 55 -328 63 -534 6 -145 6 -147 -26 -244 -18 -54
-41 -111 -52 -126 -10 -15 -19 -34 -19 -43 0 -9 -5 -16 -11 -16 -5 0 -7 -4 -4
-10 3 -5 2 -10 -4 -10 -12 0 -50 -81 -63 -135 -26 -112 -9 -225 53 -346 22
-42 24 -69 8 -69 -7 0 -80 33 -163 74 -83 41 -162 77 -176 79 -25 5 -169 70
-267 120 -29 15 -56 28 -60 30 -18 5 -100 95 -112 122 -23 50 -35 142 -20 151
5 3 9 19 9 36 0 18 8 50 19 72 10 23 26 59 36 81 10 22 32 60 48 85 17 25 39
57 49 72 10 15 18 32 18 37 0 5 18 30 39 55 22 25 42 55 46 66 3 11 11 20 16
20 5 0 9 6 9 14 0 8 16 42 35 76 19 34 35 64 35 67 0 3 13 33 29 67 35 73 61
162 61 206 0 47 -17 27 -25 -30 -4 -27 -11 -52 -16 -56 -5 -3 -9 -14 -9 -25 0
-11 -11 -45 -25 -75 -14 -30 -25 -60 -25 -68 0 -7 -12 -23 -27 -37 -14 -13
-23 -19 -20 -13 4 6 9 38 12 70 3 32 11 84 17 114 32 163 49 402 49 704 0 142
-3 284 -6 315 -3 31 -7 83 -10 116 -9 149 -19 225 -28 225 -9 0 -4 -157 8
-235 3 -16 5 -190 6 -385 2 -390 3 -382 -61 -461 -183 -224 -432 -385 -835
-539 -73 -27 -215 -66 -300 -81 -27 -4 -61 -11 -75 -14 -69 -15 -392 -16 -530
-1 -189 20 -200 22 -300 60 -118 44 -188 92 -228 159 -43 70 -52 106 -52 197
0 63 -4 81 -24 110 -12 19 -51 89 -86 155 -35 66 -67 124 -71 129 -14 16 -10
43 7 50 47 18 75 6 148 -63 74 -70 176 -133 176 -108 0 7 -19 35 -43 62 -57
68 -83 105 -101 150 -26 61 -22 73 37 100 59 28 92 32 84 11 -5 -13 40 -112
78 -171 27 -41 90 -102 123 -119 24 -12 32 -11 80 10 53 25 70 41 30 28 -13
-4 -26 -11 -29 -16 -7 -10 -48 -5 -76 11 -23 12 -68 61 -98 105 -36 52 -87
165 -80 176 7 11 162 60 191 60 17 0 20 -5 17 -27 -6 -38 56 -178 102 -231 28
-33 42 -41 57 -36 41 13 53 36 50 97 -3 48 -6 57 -22 57 -37 0 -50 12 -50 44
0 23 7 35 28 47 19 11 28 24 30 45 1 16 3 42 4 58 4 43 -45 66 -142 65 -100 0
-307 -38 -435 -80 l-67 -21 -15 22 c-28 40 -65 113 -90 179 -25 66 -55 238
-51 291 3 34 17 34 35 0 6 -12 15 -25 20 -29 4 -3 17 -23 27 -44 27 -52 216
-237 244 -237 6 0 12 -4 12 -10 0 -9 39 -29 88 -44 20 -7 18 0 -19 78 -27 56
-39 91 -34 105 7 24 22 27 44 7 23 -20 110 -67 140 -76 26 -8 26 -8 -11 -24
-21 -9 -38 -21 -38 -26 0 -6 44 -10 108 -11 59 0 121 -2 137 -5 191 -25 336
-30 429 -13 131 23 209 39 215 44 3 4 -1 10 -8 14 -16 10 21 48 88 92 61 39
87 38 95 -3 8 -43 59 -150 91 -192 14 -19 51 -51 81 -72 l55 -38 57 13 c31 7
80 17 107 23 28 5 70 16 95 25 25 8 54 17 65 19 11 2 30 8 43 14 12 5 34 16
50 22 37 17 99 86 105 118 3 14 8 36 12 50 13 41 18 140 7 140 -19 0 -40 -37
-44 -82 -6 -50 -46 -138 -81 -175 -11 -13 -31 -23 -43 -23 -21 0 -22 3 -14 26
11 28 13 126 4 161 -5 20 -11 22 -48 17 -30 -5 -45 -2 -54 9 -10 12 -6 20 23
46 43 37 41 56 -10 89 -19 12 -35 26 -35 31 0 8 173 67 215 73 13 2 20 -4 23
-17 2 -11 6 -27 9 -35 3 -8 5 -23 4 -32 -2 -13 5 -18 25 -18 29 0 29 -3 8 106
-4 24 -2 33 11 38 58 22 85 -53 91 -258 4 -102 8 -140 17 -138 35 10 59 106
66 262 l6 135 35 -3 c19 -1 37 -7 38 -12 2 -6 8 -8 13 -4 5 3 9 -1 10 -8 0 -7
4 -3 9 10 8 20 16 22 78 22 41 0 75 5 86 13 31 22 15 50 -39 70 -28 11 -72 28
-100 39 -27 11 -63 23 -79 26 -17 3 -50 17 -76 32 -25 15 -58 30 -73 34 -15 3
-25 11 -22 16 3 6 0 10 -7 10 -18 0 -71 56 -92 97 -15 30 -15 32 3 38 11 3 56
-11 111 -35 51 -22 95 -38 98 -35 12 11 52 -40 52 -66 0 -14 7 -32 15 -39 12
-10 15 -10 15 3 0 9 -4 19 -10 22 -5 3 -10 27 -10 53 0 58 -12 81 -33 64 -12
-10 -25 -8 -68 8 -73 29 -140 59 -164 72 -11 6 -44 24 -72 39 -53 28 -53 28
-53 6 1 -12 9 -36 18 -53 28 -51 136 -183 155 -189 30 -11 18 -24 -30 -31 -27
-5 -52 -7 -56 -6 -14 4 -72 11 -147 17 -41 4 -79 10 -85 15 -5 4 -35 13 -65
20 -69 16 -193 66 -242 97 -21 12 -42 23 -48 23 -6 0 -13 6 -16 14 -3 8 -17
16 -32 19 -15 3 -39 17 -54 31 -15 15 -30 26 -34 26 -13 0 -171 166 -213 223
-24 32 -56 88 -73 124 -30 63 -31 66 -24 171 8 111 21 182 57 296 11 37 18 75
16 84 -6 27 -24 -21 -70 -188 -22 -82 -41 -326 -33 -443 7 -116 17 -176 52
-332 46 -199 53 -171 -75 -294 -94 -90 -111 -111 -111 -137 0 -36 20 -57 73
-74 36 -11 97 -6 97 9 0 3 21 29 48 57 26 27 54 60 62 72 8 12 18 21 22 20 15
-6 76 -112 71 -124 -3 -7 -13 -16 -22 -19 -10 -3 -28 -16 -41 -30 -34 -36 -3
-43 49 -11 49 31 52 31 74 6 16 -19 15 -22 -23 -63 -73 -76 -118 -141 -133
-192 l-14 -49 -119 -18 c-139 -22 -311 -19 -419 5 -155 35 -203 50 -265 83
-35 19 -67 34 -71 34 -23 0 -189 161 -206 199 -9 22 -17 31 -20 22 -3 -7 -1
-16 4 -20 6 -3 13 -17 16 -31 3 -14 15 -35 26 -47 11 -12 29 -52 39 -90 11
-37 27 -85 36 -105 15 -34 15 -38 1 -38 -9 0 -28 8 -43 17 -31 20 -168 153
-157 153 4 0 -9 18 -29 40 -20 22 -36 44 -36 49 0 5 -6 16 -14 24 -21 21 -82
146 -99 204 -9 29 -28 117 -43 195 -24 132 -26 156 -20 308 3 91 11 185 16
210 10 42 17 80 38 193 11 58 41 92 142 159 111 74 193 113 358 167 237 79
477 130 777 165 90 10 488 4 616 -9z m1110 -116 c11 -21 7 -94 -5 -106 -3 -4
-15 2 -26 12 -15 13 -20 31 -20 67 0 41 3 48 20 48 10 0 24 -10 31 -21z m201
-29 c17 -16 34 -30 39 -30 10 0 53 -90 46 -97 -6 -6 -99 65 -129 100 -22 24
-23 57 -3 57 8 0 29 -13 47 -30z m29 -156 c63 -54 69 -62 69 -91 0 -32 -10
-29 -44 13 -16 20 -48 45 -72 56 -24 10 -44 23 -44 29 0 11 22 38 31 39 3 0
30 -21 60 -46z m-1936 -411 c9 -9 35 -41 58 -72 23 -31 76 -90 119 -131 43
-42 78 -79 78 -84 0 -10 -157 -162 -182 -176 -14 -8 -19 -2 -33 40 -9 28 -19
65 -22 82 -2 17 -8 41 -13 53 -7 20 -14 71 -34 268 -4 40 4 46 29 20z m402
-373 c54 -34 123 -68 153 -77 30 -8 57 -19 60 -22 9 -12 283 -71 330 -72 40 0
43 -1 27 -13 -9 -7 -50 -23 -90 -35 -131 -41 -339 -120 -382 -146 -11 -7 -64
-35 -117 -63 -88 -46 -99 -50 -113 -36 -22 23 -19 38 15 57 31 19 41 47 16 47
-8 0 -31 -10 -51 -21 l-36 -22 -17 23 c-9 12 -29 45 -44 73 l-27 50 30 54 c59
106 119 230 119 247 0 27 25 19 127 -44z m-182 -30 c3 -5 3 -10 -2 -10 -4 0
-19 -23 -32 -52 -13 -28 -28 -57 -33 -62 -5 -6 -29 -45 -53 -87 -59 -99 -149
-199 -180 -199 -37 0 -75 21 -81 46 -5 18 24 52 168 197 162 164 197 192 213
167z m2241 -176 c23 -6 44 -42 44 -75 0 -11 -19 -53 -42 -92 -39 -68 -59 -93
-153 -192 -53 -56 -354 -315 -377 -323 -4 -2 -8 16 -9 40 0 24 -2 52 -4 62 -2
11 -6 67 -9 125 -3 58 -8 131 -11 161 -3 30 -2 60 3 67 9 14 210 37 236 27 9
-3 16 -17 16 -30 0 -33 28 -31 36 2 4 14 17 30 30 34 13 5 24 15 24 21 0 7
-50 10 -167 9 -93 -1 -174 -2 -180 -1 -9 1 -13 19 -13 55 0 49 2 54 28 64 15
6 79 16 142 22 63 6 149 15 190 19 94 10 189 12 216 5z m-1846 -333 c0 -11 -4
-23 -10 -26 -10 -6 -6 -78 7 -120 15 -52 66 -147 97 -179 32 -34 33 -37 15
-47 -11 -5 -48 -12 -84 -16 -51 -5 -70 -2 -90 11 -15 10 -33 15 -41 12 -22 -8
-68 48 -115 140 -22 44 -41 87 -42 95 -2 8 -6 19 -9 25 -12 19 15 41 82 66 36
14 83 32 105 41 56 22 85 22 85 -2z m1680 -336 c-1 -123 -4 -194 -10 -185 -7
13 -27 86 -45 167 -3 12 -14 50 -24 84 -23 72 -18 95 30 132 24 19 36 23 41
14 4 -7 8 -102 8 -212z m-126 23 c10 -40 30 -111 44 -157 l25 -84 -29 -20
c-16 -12 -51 -43 -78 -69 -41 -40 -60 -51 -113 -63 -52 -12 -67 -13 -76 -3 -8
9 -12 60 -11 162 0 162 -3 151 64 196 13 8 37 28 54 44 31 28 86 66 97 66 3 0
13 -33 23 -72z m562 -210 c51 -38 105 -92 120 -120 16 -31 18 -91 4 -117 -7
-15 -2 -24 29 -49 84 -67 107 -159 97 -386 -6 -136 -11 -168 -32 -219 -13 -33
-31 -68 -40 -78 -25 -28 -110 -42 -249 -42 -108 0 -142 4 -200 23 -62 20 -79
31 -146 99 -91 92 -126 168 -136 291 -5 73 -4 82 21 124 15 26 38 53 51 62 28
18 33 42 11 50 -18 7 -82 -34 -97 -63 -15 -29 -18 -29 -52 2 -38 36 -38 118 1
191 57 108 160 170 372 224 142 36 206 38 246 8z m-682 -245 c-4 -10 -10 -52
-12 -95 -3 -67 -1 -81 21 -115 13 -21 32 -44 41 -52 21 -18 20 -24 -10 -60
-43 -52 -109 -38 -174 35 -32 37 -32 39 -26 103 15 140 27 161 111 187 54 17
58 17 49 -3z m-715 -243 c-1 -39 -6 -73 -10 -76 -5 -3 -9 -19 -9 -37 1 -58
-14 -159 -25 -177 -3 -5 -16 -10 -27 -10 -11 0 -38 -5 -59 -12 -36 -10 -43
-18 -78 -93 -44 -90 -59 -108 -92 -103 -22 3 -29 17 -43 80 -8 37 -32 58 -67
58 -22 0 -30 6 -35 24 -8 34 -3 40 76 86 38 22 75 46 82 53 7 8 19 16 25 18
13 4 223 209 223 217 0 7 31 42 37 42 2 0 3 -32 2 -70z m1845 -145 c65 -119
82 -158 107 -247 26 -92 24 -124 -8 -167 -29 -37 -80 -91 -88 -91 -3 0 13 28
36 62 58 90 59 100 25 217 -18 65 -96 227 -143 296 -40 61 -47 108 -8 60 13
-16 49 -75 79 -130z m-1224 -5 c0 -5 -4 -10 -9 -10 -6 0 -13 5 -16 10 -3 6 1
10 9 10 9 0 16 -4 16 -10z m-1112 -212 l-3 -32 -115 -27 c-63 -16 -122 -28
-130 -28 -8 -1 34 22 95 49 60 28 114 55 119 60 21 21 37 11 34 -22z m-165
-151 c4 3 7 1 7 -6 0 -8 -6 -11 -16 -7 -9 3 -23 6 -32 6 -14 0 -15 2 -2 10 9
5 19 5 26 0 6 -6 14 -7 17 -3z m-259 -7 c-13 -13 -104 -40 -104 -30 0 4 17 14
38 23 43 18 81 22 66 7z m126 -30 c0 -22 -29 -37 -88 -47 -31 -5 -33 -4 -30
18 2 18 13 26 48 35 64 17 70 16 70 -6z m-1210 -18 c22 -18 28 -55 46 -320 9
-134 8 -143 -26 -174 -26 -23 -30 -34 -31 -80 0 -45 -2 -50 -12 -34 -7 11 -21
30 -33 42 -19 20 -21 34 -23 285 -1 145 1 272 4 282 9 22 47 22 75 -1z m3530
0 c0 -28 -58 -42 -89 -23 -15 10 -15 10 54 24 33 7 35 7 35 -1z m-2650 -12 c0
-6 -10 -14 -23 -19 -36 -14 -51 -41 -71 -132 l-6 -26 -132 5 c-211 8 -438 -20
-438 -54 0 -7 -27 -36 -61 -66 -33 -29 -66 -62 -72 -75 -10 -18 -12 -3 -15 85
-1 59 -4 142 -7 184 -5 69 -4 78 14 87 12 7 29 7 48 1 46 -15 225 -30 357 -30
114 0 291 19 361 40 41 11 45 11 45 0z m2930 -105 c-7 -8 -17 -15 -22 -15 -11
0 14 29 26 30 5 0 3 -7 -4 -15z m-45 -35 c-3 -5 -10 -10 -16 -10 -5 0 -9 5 -9
10 0 6 7 10 16 10 8 0 12 -4 9 -10z m-2125 -59 c0 -17 -43 -41 -72 -41 -34 0
-37 23 -5 38 28 13 77 15 77 3z m-790 -222 c0 -5 -16 -17 -35 -25 -43 -18 -46
-18 -38 2 9 25 73 46 73 23z m800 -168 c8 -16 6 -23 -12 -35 -25 -18 -74 -21
-83 -6 -8 13 43 60 66 60 10 0 23 -9 29 -19z m-876 -218 c-20 -15 -54 -18 -54
-5 0 13 43 30 59 24 11 -4 10 -8 -5 -19z m-840 -139 c3 -9 2 -23 -3 -32 -4 -9
-6 -23 -3 -31 3 -8 0 -11 -6 -7 -6 3 -14 1 -18 -5 -3 -6 -1 -15 6 -19 9 -6 9
-9 1 -15 -7 -4 -18 -1 -26 5 -12 10 -15 10 -15 0 0 -8 -3 -11 -6 -7 -4 3 4 35
16 71 22 63 40 76 54 40z m106 -4 c0 -5 -8 -10 -17 -10 -15 0 -16 2 -3 10 19
12 20 12 20 0z m67 -46 c-5 -5 -57 13 -57 20 0 3 14 0 31 -6 16 -6 28 -12 26
-14z m1563 -34 c0 -15 -46 -34 -64 -27 -9 4 -13 13 -10 22 7 17 74 22 74 5z
m-1530 -10 c0 -5 -7 -7 -15 -4 -8 4 -15 8 -15 10 0 2 7 4 15 4 8 0 15 -4 15
-10z m-205 -50 c3 -5 -1 -10 -10 -10 -9 0 -13 5 -10 10 3 6 8 10 10 10 2 0 7
-4 10 -10z"/>
<path d="M2450 4246 c0 -22 18 -56 30 -56 6 0 5 12 -2 28 -16 37 -28 50 -28
28z"/>
<path d="M2494 4128 c6 -24 19 -63 28 -88 9 -25 22 -65 28 -90 7 -25 15 -39
18 -32 5 17 -18 133 -30 148 -5 7 -14 31 -21 55 -17 58 -38 65 -23 7z"/>
<path d="M2574 3870 c4 -19 10 -52 13 -72 3 -21 9 -38 15 -38 5 0 6 -5 3 -10
-4 -6 -2 -16 3 -23 12 -16 23 -72 22 -119 -1 -21 3 -38 8 -38 5 0 13 -33 19
-72 6 -40 14 -86 18 -103 4 -16 8 -39 10 -50 1 -11 3 -24 4 -29 0 -6 6 -5 13
2 8 8 9 18 1 34 -5 13 -11 47 -12 76 -1 29 -9 71 -17 95 -8 23 -24 85 -34 137
-27 138 -49 223 -62 235 -7 7 -8 0 -4 -25z"/>
<path d="M3236 3355 c5 -124 7 -142 17 -151 17 -17 11 92 -13 211 -7 40 -8 29
-4 -60z"/>
<path d="M2715 3120 c-3 -5 1 -10 9 -10 9 0 16 5 16 10 0 6 -4 10 -9 10 -6 0
-13 -4 -16 -10z"/>
<path d="M454 2898 c-14 -22 10 -58 83 -128 43 -41 91 -84 106 -94 16 -11 40
-30 55 -43 38 -32 64 -29 106 15 66 67 59 112 -22 154 -27 14 -65 29 -83 33
-19 4 -38 11 -44 15 -5 5 -23 10 -40 13 -16 3 -58 14 -93 25 -37 12 -64 16
-68 10z m156 -63 c41 -14 97 -33 123 -41 60 -19 90 -47 82 -77 -7 -23 -59 -77
-74 -77 -13 0 -101 70 -101 80 0 5 -10 12 -22 16 -23 7 -118 91 -118 105 0 4
8 10 18 12 9 3 17 5 17 6 1 0 34 -10 75 -24z"/>
<path d="M1320 1791 c0 -64 4 -83 20 -102 26 -32 42 -11 28 38 -5 18 -8 50 -6
70 l3 36 65 -51 c36 -28 77 -60 92 -71 64 -50 65 -8 1 49 -74 66 -145 110
-175 110 l-28 0 0 -79z"/>
<path d="M3926 1959 c-128 -26 -163 -40 -150 -61 8 -13 51 -9 174 14 117 22
140 31 140 53 0 23 -23 22 -164 -6z"/>
<path d="M4903 4863 c9 -2 25 -2 35 0 9 3 1 5 -18 5 -19 0 -27 -2 -17 -5z"/>
<path d="M2470 970 c0 -5 5 -10 10 -10 6 0 10 5 10 10 0 6 -4 10 -10 10 -5 0
-10 -4 -10 -10z"/>
<path d="M816 32 c-2 -4 0 -14 5 -22 8 -13 10 -13 18 0 10 15 6 30 -9 30 -5 0
-11 -4 -14 -8z"/>
<path d="M850 10 c0 -5 10 -10 23 -10 18 0 19 2 7 10 -19 13 -30 13 -30 0z"/>
</g>
</svg>
